<svg xmlns="http://www.w3.org/2000/svg" viewBox="0 0 500 500"><g id="freepik--background-complete--inject-13"><path d="M292,117l11.38-48.41c0-2.14,1.5-5.15,3.38-6a4.51,4.51,0,0,1,3-.29l27.11,6.9a4.34,4.34,0,0,1,3.3,3.48L341.64,80,377.1,89c4.82.8,6.82,5.26,5.6,8.6l-10.81,40.84c-1.72,4.71-6.88,7.28-11,6.23l-62.68-15.94C293.92,127.65,291.24,122.93,292,117Z" style="fill:#e0e0e0"></path><path d="M291.25,116l10-40.5c1.18-3.1,3.89-4.93,6.38-4.29L378.67,89.3c3,.77,4.47,4.77,3.13,8.56l-9,37.52c-2.37,9.33-8,10.85-12.29,9.77L298.24,129.3C291.84,127.67,288.88,124,291.25,116Z" style="fill:#ebebeb"></path><path d="M338.52,120.22a11.46,11.46,0,0,1-3.4-.52A11.61,11.61,0,1,1,349.63,112h0A11.64,11.64,0,0,1,338.52,120.22Zm0-22.24a10.62,10.62,0,1,0,10.15,13.73h0A10.62,10.62,0,0,0,338.53,98Z" style="fill:#e0e0e0"></path><polygon points="335.91 107.79 337.38 103.01 340.79 106.67 344.2 110.34 339.32 111.46 334.44 112.58 335.91 107.79" style="fill:#e0e0e0"></polygon><path d="M125.76,369.66,72.3,398.55A7.6,7.6,0,0,1,62,395.48l-40-74a7.61,7.61,0,0,1,3.07-10.31L59,292.86l40.86,12.86,29,53.63A7.61,7.61,0,0,1,125.76,369.66Z" style="fill:#ebebeb"></path><path d="M93.1,341.35s.44-.26,1.16-.87A7.23,7.23,0,0,0,96.4,337a6.94,6.94,0,0,0-.32-4.55c-.24-.53-.55-1.07-.86-1.64L91,323.16l-2.44-4.47-1.29-2.38A12.28,12.28,0,0,0,85.8,314a7.73,7.73,0,0,0-4.94-2.61,7.57,7.57,0,0,0-3,.21,12.42,12.42,0,0,0-2.82,1.28l-24.5,13.31a7.47,7.47,0,0,0-3.29,5.92,7.12,7.12,0,0,0,.65,3.35c.49,1,1.1,2.07,1.64,3.1L56,350.41c.51.92,1,1.93,1.53,2.75a7.22,7.22,0,0,0,2.14,2,7.09,7.09,0,0,0,5.48.77,11.93,11.93,0,0,0,2.5-1.13L70,353.54l4.49-2.41,13.57-7.21L91.79,342l1-.49a1.6,1.6,0,0,1,.34-.14,1.64,1.64,0,0,1-.31.2l-.94.55c-.88.48-2.1,1.17-3.65,2l-13.47,7.39L70.26,354l-2.38,1.3a12.22,12.22,0,0,1-2.61,1.19,7.59,7.59,0,0,1-8.24-3c-.61-.93-1-1.85-1.57-2.8L49,338.86c-.55-1-1.13-2-1.67-3.14a7.79,7.79,0,0,1-.71-3.63,8.12,8.12,0,0,1,3.57-6.43c8.73-4.81,17-9.21,24.58-13.3a12.65,12.65,0,0,1,3-1.32,8.11,8.11,0,0,1,3.17-.21,8.27,8.27,0,0,1,5.27,2.82,12.57,12.57,0,0,1,1.53,2.42c.43.81.86,1.6,1.28,2.38q1.24,2.34,2.4,4.49c1.53,2.86,2.91,5.45,4.12,7.73.31.57.6,1.11.86,1.68a7.3,7.3,0,0,1,.46,1.7,7.12,7.12,0,0,1-2.51,6.53A5.4,5.4,0,0,1,93.1,341.35Z" style="fill:#fafafa"></path><path d="M97.21,334.6a2.12,2.12,0,0,1-.61-.19l-1.68-.66c-1.53-.65-3.61-1.51-6.13-2.56l-4.21-1.8-2.35-1L81,327.87a2.09,2.09,0,0,0-1.19-.1,2.16,2.16,0,0,0-1.66,1.67c-.16.95-.32,1.92-.49,2.91-.34,2-.68,4-1,6.16-.16.95-.32,1.88-.47,2.76l-.06.35-.34-.1L70.22,340l-1.32-.38a3.27,3.27,0,0,0-1.22-.21,2.28,2.28,0,0,0-1.88,1.16,4.75,4.75,0,0,0-.39,1.12l-.33,1.17c-.22.77-.43,1.51-.64,2.23-.4,1.44-.79,2.77-1.14,4l-1.68,5.74c-.19.61-.35,1.12-.49,1.54a2.11,2.11,0,0,1-.2.53,1.93,1.93,0,0,1,.09-.56c.1-.43.22-.95.37-1.58.38-1.45.88-3.4,1.5-5.79.32-1.23.68-2.57,1.06-4q.3-1.1.6-2.25c.11-.38.21-.78.32-1.17a5,5,0,0,1,.43-1.25,2.88,2.88,0,0,1,2.34-1.48,3.82,3.82,0,0,1,1.42.23l1.33.37,5.55,1.54-.41.25c.15-.88.31-1.81.47-2.76l1-6.15q.26-1.5.51-2.94a2.74,2.74,0,0,1,2.15-2.12,2.68,2.68,0,0,1,1.51.14l1.23.54,2.34,1L89,330.77l6,2.75,1.63.77A3.48,3.48,0,0,1,97.21,334.6Z" style="fill:#fafafa"></path><path d="M68.55,331.44c0-.05.28-.23.71-.66a4,4,0,0,0,1.09-2.25,3.73,3.73,0,0,0-1.25-3.3,3.67,3.67,0,0,0-6,3.26,3.75,3.75,0,0,0,2.09,2.86,4,4,0,0,0,2.47.32,9,9,0,0,1,.94-.23,1.92,1.92,0,0,1-.88.47,3.9,3.9,0,0,1-2.72-.15,4.16,4.16,0,0,1-2.48-3.18,4.24,4.24,0,0,1,7-3.8,4.17,4.17,0,0,1,1.31,3.82A4,4,0,0,1,69.43,331,2,2,0,0,1,68.55,331.44Z" style="fill:#fafafa"></path><path d="M53.88,355.78h76a0,0,0,0,1,0,0v23.77a6.36,6.36,0,0,1-6.36,6.36H60.24a6.36,6.36,0,0,1-6.36-6.36V355.78A0,0,0,0,1,53.88,355.78Z" transform="translate(-165.29 88.29) rotate(-28.39)" style="fill:#e0e0e0"></path><path d="M59,292.86l11.26,20.82a7.06,7.06,0,0,0,9.58,2.86l20-10.82Z" style="fill:#ebebeb"></path><path d="M71.5,315.36s2.47,5.2,9.11,3.75c.25-.06.5-.13.74-.21,2.87-.94,21.73-7.19,21.52-7.58l-3-5.6-20,10.83S74.73,319.08,71.5,315.36Z" style="fill:#e0e0e0"></path><path d="M85.37,373.13l2.2-1.19,2.28,4.22a8.17,8.17,0,0,1-3.49,3.59c-3.27,1.77-6.89.83-8.58-2.31s-.5-6.67,2.81-8.46a6.32,6.32,0,0,1,5.32-.56l-.77,2.26a4,4,0,0,0-3.32.28,3.78,3.78,0,1,0,3.56,6.67A4.22,4.22,0,0,0,87,376.17Z" style="fill:#fafafa"></path><path d="M87.07,365.71l2.4-1.3,5.62,10.39-2.4,1.3Z" style="fill:#fafafa"></path><path d="M95.38,363.71l1.49,2.74,4.81-2.6,1,1.93-4.81,2.61,2,3.78-2.41,1.3-5.62-10.39,7.86-4.25,1,1.93Z" style="fill:#fafafa"></path><path d="M382.79,421.65,345,403.39a5.25,5.25,0,0,1-2.44-7l25.26-52.28a5.25,5.25,0,0,1,7-2.44l24,11.57,9.31,28.07L389.8,419.2A5.25,5.25,0,0,1,382.79,421.65Z" style="fill:#ebebeb"></path><path d="M385.44,391.92s.32.14.95.3a5,5,0,0,0,2.8-.19,4.75,4.75,0,0,0,1.7-1.11,5.07,5.07,0,0,0,.72-.91c.2-.35.38-.74.57-1.15.76-1.61,1.64-3.44,2.6-5.45.48-1,1-2.07,1.51-3.18l.81-1.68a8.16,8.16,0,0,0,.7-1.77,5.38,5.38,0,0,0-.53-3.81A5.21,5.21,0,0,0,396,371.4a8.65,8.65,0,0,0-1.86-1.06L376.75,362a5.2,5.2,0,0,0-4.65.55,5,5,0,0,0-1.61,1.72c-.37.69-.71,1.45-1.07,2.17-1.41,2.9-2.76,5.7-4.05,8.36-.31.67-.68,1.33-.93,2a5,5,0,0,0-.26,2,4.89,4.89,0,0,0,1.79,3.38,7.77,7.77,0,0,0,1.64.94l1.68.82,3.16,1.54,9.52,4.68,2.58,1.29.67.35.22.13a.75.75,0,0,1-.24-.09l-.69-.31-2.61-1.21-9.59-4.56-3.17-1.51-1.69-.81a8,8,0,0,1-1.71-1,5.19,5.19,0,0,1-1.94-3.63,5.13,5.13,0,0,1,.27-2.19c.27-.71.62-1.32.93-2,1.28-2.67,2.63-5.47,4-8.37.36-.73.68-1.45,1.08-2.2a5.4,5.4,0,0,1,1.75-1.87,5.61,5.61,0,0,1,5-.6c6.22,2.95,12,5.81,17.38,8.39a9.14,9.14,0,0,1,1.93,1.12,5.76,5.76,0,0,1,2,5.78,8.76,8.76,0,0,1-.74,1.83l-.82,1.68c-.53,1.1-1.05,2.15-1.54,3.16L392.4,389c-.2.4-.38.79-.6,1.16a4.74,4.74,0,0,1-.76.94,4.85,4.85,0,0,1-1.79,1.12,5,5,0,0,1-2.88.12A3.57,3.57,0,0,1,385.44,391.92Z" style="fill:#fafafa"></path><path d="M390.87,391.5a1.94,1.94,0,0,1-.13-.42c-.09-.32-.19-.72-.31-1.21-.26-1.12-.61-2.63-1-4.46-.22-1-.45-2-.7-3.09-.13-.56-.26-1.13-.39-1.72-.07-.29-.13-.59-.2-.89a1.48,1.48,0,0,0-2-1l-1.83.9-3.87,1.91-1.73.85-.22.11-.08-.23L377,378.56l-.32-.9a2.4,2.4,0,0,0-.37-.77,1.63,1.63,0,0,0-1.42-.58,3.24,3.24,0,0,0-.78.23l-.79.29-1.5.55-2.7,1-3.9,1.38-1.05.35a1.64,1.64,0,0,1-.38.1s.11-.08.35-.18l1-.42,3.84-1.51,2.68-1,1.5-.57.79-.3a3.72,3.72,0,0,1,.87-.27,2,2,0,0,1,1.78.72,2.84,2.84,0,0,1,.44.89l.33.89c.45,1.2.91,2.45,1.38,3.73l-.3-.13,1.73-.85,3.87-1.9,1.85-.9a1.88,1.88,0,0,1,2.05.35,1.74,1.74,0,0,1,.53.9c.07.3.14.61.2.91.13.59.25,1.16.37,1.72.23,1.11.44,2.15.64,3.1.38,1.85.68,3.37.91,4.5l.22,1.22A1.32,1.32,0,0,1,390.87,391.5Z" style="fill:#fafafa"></path><path d="M381.07,374.18s.24.06.65.12a2.68,2.68,0,0,0,1.7-.29,2.61,2.61,0,0,0,1.35-2,2.54,2.54,0,1,0-5,.26,2.72,2.72,0,0,0,.82,1.51c.31.29.53.4.51.44s-.25,0-.62-.31a2.67,2.67,0,0,1-1-1.58,2.85,2.85,0,0,1,.78-2.67,2.92,2.92,0,0,1,5,2.4,2.88,2.88,0,0,1-1.61,2.27,2.72,2.72,0,0,1-1.87.18A1.4,1.4,0,0,1,381.07,374.18Z" style="fill:#fafafa"></path><path d="M342.2,392.75h52.45a0,0,0,0,1,0,0V407.2a6.36,6.36,0,0,1-6.36,6.36H348.56a6.36,6.36,0,0,1-6.36-6.36V392.75A0,0,0,0,1,342.2,392.75Z" transform="translate(212.07 -120.13) rotate(25.79)" style="fill:#e0e0e0"></path><path d="M398.8,353.23,391.69,368a4.89,4.89,0,0,0,2.27,6.52l14.15,6.83Z" style="fill:#ebebeb"></path><path d="M391.26,369.33a5.44,5.44,0,0,0,1.58,6.62l.42.33c1.69,1.22,12.8,9.26,12.94,9l1.91-4L394,374.47S390.48,372.64,391.26,369.33Z" style="fill:#e0e0e0"></path><path d="M364.52,400.44l1.56.75-1.44,3a5.69,5.69,0,0,1-3.43-.5,4.23,4.23,0,1,1,3.71-7.58,4.36,4.36,0,0,1,2.46,2.75l-1.58.48a2.74,2.74,0,0,0-1.5-1.75,2.61,2.61,0,1,0-2.29,4.69,2.94,2.94,0,0,0,1.47.33Z" style="fill:#fafafa"></path><path d="M369.36,398.39l1.7.82-3.55,7.35-1.7-.83Z" style="fill:#fafafa"></path><path d="M373.84,402.24l-.93,1.94,3.4,1.64-.66,1.36-3.4-1.64-1.3,2.68-1.7-.82,3.55-7.35,5.55,2.68-.65,1.37Z" style="fill:#fafafa"></path><rect x="42.18" y="117.07" width="86.02" height="68.77" transform="translate(-31.75 22.92) rotate(-12.94)" style="fill:#fafafa"></rect><path d="M119.41,108.31l-.41.11-1.17.28-4.55,1.07-17.15,4-60.51,14,.17-.27c4.59,20,9.85,42.82,15.42,67h0l-.3-.19,83.85-19.22-.16.25-11.06-48.63c-1.32-5.86-2.36-10.46-3.07-13.6-.35-1.57-.62-2.77-.8-3.59s-.26-1.25-.26-1.25.1.4.29,1.2.48,2,.84,3.54c.73,3.13,1.8,7.7,3.17,13.52L135,175.29l0,.2-.2,0L51,194.84l-.25.06-.05-.25h0c-5.55-24.2-10.79-47.07-15.37-67l-.05-.22.22-.05,60.7-13.83,17.13-3.87,4.52-1,1.15-.25Z" style="fill:#e0e0e0"></path><rect x="45.14" y="121.41" width="79.98" height="60.11" transform="translate(-31.75 22.91) rotate(-12.94)" style="fill:#ebebeb"></rect><polygon points="52.89 189.71 71.75 147.04 93.85 165.95 102.49 151.14 130.84 171.81 52.89 189.71" style="fill:#e0e0e0"></polygon><path d="M94.75,137.06a6.3,6.3,0,1,1-7.55-4.73A6.3,6.3,0,0,1,94.75,137.06Z" style="fill:#e0e0e0"></path><rect x="80.52" y="51.9" width="129.98" height="103.92" transform="translate(-4.19 6.14) rotate(-2.38)" style="fill:#fafafa"></rect><path d="M208.28,49.24s-.22,0-.63,0l-1.82.09-7.05.34-26.59,1.19L78.43,55l.32-.35c1.3,30.9,2.78,66.33,4.36,103.82h0l-.39-.36,129.87-5.34-.3.32c-1.23-31.26-2.26-57.18-3-75.31-.34-9.06-.61-16.17-.8-21-.08-2.42-.15-4.28-.19-5.56s-.05-1.93-.05-1.93.05.62.11,1.86.15,3.1.27,5.49c.22,4.86.54,11.94,1,21,.8,18.17,1.93,44.15,3.3,75.5l0,.31h-.32L82.75,158.85h-.38v-.37h0c-1.55-37.49-3-72.92-4.28-103.82l0-.34h.34l94-3.74,26.51-1,7-.25,1.79,0Z" style="fill:#e0e0e0"></path><rect x="85" y="58.45" width="120.85" height="90.83" transform="translate(-4.19 6.13) rotate(-2.38)" style="fill:#ebebeb"></rect><polygon points="86.94 151.75 126.76 93.58 154.36 127.79 171.29 108.19 207.68 146.73 86.94 151.75" style="fill:#e0e0e0"></polygon><path d="M163.69,85.13a9.51,9.51,0,1,1-9.9-9.12A9.51,9.51,0,0,1,163.69,85.13Z" style="fill:#e0e0e0"></path></g><g id="freepik--folder-2--inject-13"><path d="M177.44,221.57,157.05,164c-1.37-2.24-1.86-6.31-.48-8.45a5.49,5.49,0,0,1,2.88-2.29l32.6-10.87a5.4,5.4,0,0,1,5.73,1.41l6.36,6.61,42.68-14.19c5.51-2.37,10.54.91,11.5,5.17l15.95,49.39c1.35,6-2.28,12.1-7.23,13.75l-75.38,25.14C186.48,231.36,180.59,228.26,177.44,221.57Z" style="fill:#CFD8DC"></path><g style="opacity:0.30000000000000004"><path d="M177.44,221.57,157.05,164c-1.37-2.24-1.86-6.31-.48-8.45a5.49,5.49,0,0,1,2.88-2.29l32.6-10.87a5.4,5.4,0,0,1,5.73,1.41l6.36,6.61,42.68-14.19c5.51-2.37,10.54.91,11.5,5.17l15.95,49.39c1.35,6-2.28,12.1-7.23,13.75l-75.38,25.14C186.48,231.36,180.59,228.26,177.44,221.57Z"></path></g><path d="M176.3,221l-16.59-48.48c-.85-4,.75-7.68,3.74-8.68l85.49-28.51c3.62-1.2,7.79,2,8.92,6.77l15.63,44.75c3.74,11.22-1.11,16.56-6.22,18.27l-74.91,25C184.66,232.67,179.14,230.78,176.3,221Z" style="fill:#CFD8DC"></path><path d="M238.32,193s.4-.15,1.09-.55a6.05,6.05,0,0,0,2.29-2.56,6,6,0,0,0,.4-3.84c-.13-.47-.3-1-.48-1.49l-2.38-7-1.38-4.08c-.24-.7-.48-1.43-.73-2.17a10.29,10.29,0,0,0-.89-2.14A6.61,6.61,0,0,0,230,166a10.59,10.59,0,0,0-2.54.66l-22.34,7.5a6.36,6.36,0,0,0-3.61,4.45,6.1,6.1,0,0,0,.06,2.88c.26.93.61,1.89.91,2.82q1.88,5.63,3.59,10.81c.3.84.54,1.74.87,2.51a5.94,5.94,0,0,0,5.94,3.43,9.91,9.91,0,0,0,2.25-.57l2.18-.72,4.09-1.34,12.35-4,3.37-1.07.88-.27.3-.07-.29.13-.86.31-3.33,1.17-12.3,4.19-4.08,1.38-2.17.73a10.17,10.17,0,0,1-2.34.61,6.4,6.4,0,0,1-6.43-3.68c-.38-.86-.6-1.69-.91-2.56L202,184.52c-.31-1-.65-1.85-.93-2.86a6.58,6.58,0,0,1-.06-3.12,6.84,6.84,0,0,1,3.91-4.83c8-2.73,15.51-5.19,22.41-7.49a11.2,11.2,0,0,1,2.65-.67,7,7,0,0,1,6.64,3.41,10.38,10.38,0,0,1,.92,2.24c.25.74.49,1.46.72,2.17.47,1.42.92,2.79,1.34,4.09.86,2.6,1.63,5,2.31,7,.17.52.34,1,.46,1.52a6.33,6.33,0,0,1,.14,1.48,6,6,0,0,1-3,5.07A4.57,4.57,0,0,1,238.32,193Z" style="fill:#fafafa"></path><path d="M242.73,188a2.19,2.19,0,0,1-.48-.25L241,187l-4.73-3L233,181.83l-1.81-1.18-.94-.61a1.8,1.8,0,0,0-1-.25,1.82,1.82,0,0,0-1.63,1.14l-.83,2.36-1.76,5c-.28.77-.54,1.52-.8,2.23l-.1.29-.27-.13-4.38-2.12-1-.5a2.8,2.8,0,0,0-1-.36,2,2,0,0,0-1.74.7,3.6,3.6,0,0,0-.49.87l-.44.92-.86,1.77-1.53,3.16-2.24,4.53-.63,1.22a2.84,2.84,0,0,1-.25.41,1.53,1.53,0,0,1,.16-.46c.14-.34.32-.75.54-1.25.52-1.16,1.23-2.71,2.09-4.6.45-1,.94-2.05,1.47-3.19.27-.58.54-1.17.83-1.78.14-.31.29-.62.43-.94a4.76,4.76,0,0,1,.54-1,2.44,2.44,0,0,1,2.17-.89,3.13,3.13,0,0,1,1.15.4l1,.49,4.4,2.1-.38.15c.26-.71.52-1.46.79-2.23l1.78-5,.85-2.37a2.3,2.3,0,0,1,2.1-1.45,2.25,2.25,0,0,1,1.24.34l1,.62,1.79,1.21,3.21,2.16,4.64,3.17,1.24.89A2.17,2.17,0,0,1,242.73,188Z" style="fill:#fafafa"></path><path d="M219.33,181.19s.26-.14.68-.44a3.34,3.34,0,0,0,1.24-1.71,3.19,3.19,0,0,0-.55-2.94,3.15,3.15,0,0,0-3.4-1,3.11,3.11,0,0,0-2.12,2.83,3.15,3.15,0,0,0,1.32,2.68,3.34,3.34,0,0,0,2,.63,7.79,7.79,0,0,1,.82-.06s-.25.19-.8.27a3.33,3.33,0,0,1-2.25-.52,3.54,3.54,0,0,1-1.6-3,3.58,3.58,0,0,1,6.41-2.14,3.54,3.54,0,0,1,.53,3.37,3.34,3.34,0,0,1-1.49,1.76C219.64,181.19,219.34,181.22,219.33,181.19Z" style="fill:#fafafa"></path></g><g id="freepik--folder-1--inject-13"><path d="M101.43,429.46,64,271.37c-1.57-6.62.54-13.75,5.71-17.86a14.46,14.46,0,0,1,9-3.25L182.31,247a14,14,0,0,1,13,8.14l10.32,21.42,131.47.13c9.66,0,19.8,13.4,18.65,24.65L367,433c-1.63,15.88-15.65,27.83-29.28,27.83H130C115.76,460.87,103.71,448.44,101.43,429.46Z" style="fill:#CFD8DC"></path><g style="opacity:0.30000000000000004"><path d="M101.43,429.46,64,271.37c-1.57-6.62.54-13.75,5.71-17.86a14.46,14.46,0,0,1,9-3.25L182.31,247a14,14,0,0,1,13,8.14l10.32,21.42,131.47.13c9.66,0,19.8,13.4,18.65,24.65L367,433c-1.63,15.88-15.65,27.83-29.28,27.83H130C115.76,460.87,103.71,448.44,101.43,429.46Z"></path></g><polygon points="103.22 434.06 93.32 258.92 338.52 255.21 347.12 430.74 103.22 434.06" style="fill:#e0e0e0"></polygon><path d="M102.1,266.1a1.64,1.64,0,1,1-1.64-1.77A1.7,1.7,0,0,1,102.1,266.1Z" style="fill:#ebebeb"></path><path d="M108.46,266.1a1.64,1.64,0,1,1-1.64-1.77A1.7,1.7,0,0,1,108.46,266.1Z" style="fill:#ebebeb"></path><path d="M114.83,266.1a1.64,1.64,0,1,1-1.64-1.77A1.71,1.71,0,0,1,114.83,266.1Z" style="fill:#ebebeb"></path><polygon points="189.99 266.1 204.78 354 88.41 371.48 73.62 283.58 189.99 266.1" style="fill:#ebebeb"></polygon><path d="M190,266.1l-.56.1-1.63.26-6.32,1-23.81,3.65-84,12.76.25-.33c4.42,26.16,9.47,56.15,14.83,87.89h0l-.39-.27,116.38-17.43-.24.31c-4.39-26.48-8-48.42-10.58-63.77-1.26-7.68-2.25-13.7-2.93-17.83-.33-2.05-.58-3.62-.76-4.7s-.24-1.64-.24-1.64.11.52.3,1.57.46,2.62.81,4.64c.71,4.11,1.74,10.11,3.06,17.75,2.63,15.38,6.38,37.37,10.9,63.9l.05.26-.28,0L88.46,371.8l-.33.05-.06-.32h0c-5.33-31.74-10.36-61.73-14.75-87.9l0-.28.3,0,84.25-12.5,23.77-3.5,6.27-.9,1.6-.23Z" style="fill:#263238"></path><polygon points="91.49 365.34 199.69 349.09 186.76 272.26 78.56 288.51 91.49 365.34" style="fill:#455a64"></polygon><g style="opacity:0.30000000000000004"><polygon points="91.49 365.34 121.25 311.91 149.68 338.27 162.87 319.91 199.69 349.09 91.49 365.34"></polygon></g><g style="opacity:0.30000000000000004"><path d="M153.61,301.05a8.23,8.23,0,0,1-7.17,9.33,8.59,8.59,0,0,1-9.87-6.77,8.22,8.22,0,0,1,7.16-9.33A8.58,8.58,0,0,1,153.61,301.05Z"></path></g><polygon points="110.29 442.37 106.98 271.96 357.76 271.43 356.73 439.83 110.29 442.37" style="fill:#ebebeb"></polygon><path d="M121.52,278.63a1.64,1.64,0,1,1-1.64-1.77A1.71,1.71,0,0,1,121.52,278.63Z" style="fill:#e0e0e0"></path><path d="M127.39,278.63a1.64,1.64,0,1,1-1.63-1.77A1.7,1.7,0,0,1,127.39,278.63Z" style="fill:#e0e0e0"></path><path d="M115.28,278.63a1.64,1.64,0,1,1-1.64-1.77A1.71,1.71,0,0,1,115.28,278.63Z" style="fill:#e0e0e0"></path><polygon points="116.12 446.53 116.12 284.5 365.87 283.97 352.46 450.01 116.12 446.53" style="fill:#fafafa"></polygon><path d="M104,428.59l14.94-121.75c1.16-9.52,7.94-16.58,15.93-16.58H363c9.65,0,17.14,10.17,16,21.72L367,432.27c-3.5,25-13.11,28.6-26.74,28.6H127.08C112.82,460.87,99,457.29,104,428.59Z" style="fill:#CFD8DC"></path><g style="opacity:0.7000000000000001"><path d="M256.07,354.58l6.56,13.31a3.7,3.7,0,0,0,2.76,2L280.07,372a3.65,3.65,0,0,1,2,6.24l-10.62,10.35a3.68,3.68,0,0,0-1.05,3.24l2.51,14.62a3.66,3.66,0,0,1-5.31,3.86l-13.13-6.9a3.65,3.65,0,0,0-3.4,0L238,410.33a3.65,3.65,0,0,1-5.3-3.86l2.5-14.62a3.65,3.65,0,0,0-1.05-3.24l-10.62-10.35a3.66,3.66,0,0,1,2-6.24l14.68-2.13a3.66,3.66,0,0,0,2.75-2l6.57-13.31A3.66,3.66,0,0,1,256.07,354.58Z" style="fill:#fff"></path></g></g><g id="freepik--Floor--inject-13"><path d="M44.82,460.87c0-.14,93.77-.26,209.4-.26s209.43.12,209.43.26-93.75.26-209.43.26S44.82,461,44.82,460.87Z" style="fill:#263238"></path></g><g id="freepik--Character--inject-13"><path d="M412.43,425.58c.13,1,2.48,27.62,2.48,27.62h12.21l2.14-27.51Z" style="fill:#eb996e"></path><path d="M413.53,451.37l0,.95s-16.44,6.07-16.71,9.15l32.3.76-.19-10.75A18.47,18.47,0,0,1,413.53,451.37Z" style="fill:#CFD8DC"></path><g style="opacity:0.6000000000000001"><path d="M425.54,454.83a1.33,1.33,0,0,1,.88,1.53,1.26,1.26,0,0,1-1.51.88,1.39,1.39,0,0,1-.92-1.62,1.31,1.31,0,0,1,1.67-.74" style="fill:#fff"></path></g><g style="opacity:0.6000000000000001"><path d="M429.08,462.23l-.05-2.59-30.93.22s-1.46.59-1.32,1.61Z" style="fill:#fff"></path></g><path d="M413.38,452.41c0,.16.79.25,1.55.78s1.16,1.19,1.31,1.13-.07-1-1-1.59S413.35,452.27,413.38,452.41Z" style="fill:#263238"></path><path d="M410,453.73c0,.15.64.44,1.16,1.12s.65,1.39.81,1.38.28-.89-.38-1.72S410,453.58,410,453.73Z" style="fill:#263238"></path><path d="M407.94,457.74c.14,0,.38-.74,0-1.62s-1.12-1.23-1.19-1.1.38.6.68,1.32S407.78,457.72,407.94,457.74Z" style="fill:#263238"></path><path d="M423.18,430.67c.12,1,2.47,27.62,2.47,27.62h12.22l2.14-27.5Z" style="fill:#ffbe9d"></path><path d="M437.9,454.32s-8.58,6.09-12.73.82l-1.09,2.55-4.87,18.19a2.43,2.43,0,0,0,1.37,2.92,2.34,2.34,0,0,0,2.49-.47c3.53-3.36,16.45-15.77,16.32-17.45l-.05-4.47a2.27,2.27,0,0,0-1.44-2.09Z" style="fill:#CFD8DC"></path><g style="opacity:0.6000000000000001"><path d="M421,478.93l18.4-19.61v1a2.69,2.69,0,0,1-.87,2.15c-1.49,2-5.61,6.5-15.38,15.88a2.37,2.37,0,0,1-2.14.6Z" style="fill:#fff"></path></g><g style="opacity:0.6000000000000001"><path d="M436.7,456.42a1.42,1.42,0,0,0-.4,1.86,1.38,1.38,0,0,0,1.85.41,1.5,1.5,0,0,0,.41-2,1.44,1.44,0,0,0-2-.22" style="fill:#fff"></path></g><path d="M426.3,468.89a7,7,0,0,0-2-1.8,7.06,7.06,0,0,0-2.65-.52c0-.06.27-.24.81-.31a3.67,3.67,0,0,1,2.07.37,3.77,3.77,0,0,1,1.54,1.42C426.33,468.53,426.36,468.87,426.3,468.89Z" style="fill:#263238"></path><path d="M424.65,472a20.56,20.56,0,0,0-2-1,18,18,0,0,0-2.24-.29,2.58,2.58,0,0,1,2.39-.19C424.12,470.88,424.77,471.9,424.65,472Z" style="fill:#263238"></path><path d="M429.37,465a22.94,22.94,0,0,0-3-1.76,25.85,25.85,0,0,0-3.41-.81,5.29,5.29,0,0,1,3.6.34A5.22,5.22,0,0,1,429.37,465Z" style="fill:#263238"></path><path d="M429.78,459.41c-.06.14-1.33-.4-3-.47s-3,.33-3,.19a5.84,5.84,0,0,1,6,.28Z" style="fill:#263238"></path><path d="M425.85,458.89A2,2,0,0,1,426,458a5.94,5.94,0,0,1,1.1-2.11,2.65,2.65,0,0,1,1.37-1.05,1,1,0,0,1,1,.4,1.55,1.55,0,0,1,.17,1.09,3.36,3.36,0,0,1-3.44,2.5,3.88,3.88,0,0,1-3.37-2.69,1.34,1.34,0,0,1,.15-1.11.92.92,0,0,1,1-.3,3.22,3.22,0,0,1,1.35,1.05,6.6,6.6,0,0,1,1.21,2.05,2.26,2.26,0,0,1,.21.84,11.1,11.1,0,0,0-1.69-2.65,3,3,0,0,0-1.19-.89.5.5,0,0,0-.57.16,1,1,0,0,0-.06.74,3.47,3.47,0,0,0,3,2.29,2.89,2.89,0,0,0,2.95-2.07,1.15,1.15,0,0,0-.09-.77.51.51,0,0,0-.55-.23,2.4,2.4,0,0,0-1.17.87A9,9,0,0,0,425.85,458.89Z" style="fill:#263238"></path><path d="M455.12,282.29l-60,12.19-.17,11.61a40.18,40.18,0,0,0,.32,5.7l7.2,56.78,10.48,78.85,10.08-.56.11,3.1L440,449s10.47-48.46,9.63-59.24c-1.71-22.09,1.91-33.18,4.65-44.49C457.25,333.05,468.12,304.08,455.12,282.29Z" style="fill:#263238"></path><path d="M416.77,307.43a1.36,1.36,0,0,0,0,.3c0,.22,0,.51,0,.88,0,.81.07,1.95.12,3.41.12,3,.3,7.24.52,12.51.49,10.59,1.16,25.17,1.89,41.28s1.5,30.7,2,41.29c.28,5.26.51,9.53.66,12.51l.21,3.4c0,.37,0,.66.06.88a1.4,1.4,0,0,0,0,.3,2.25,2.25,0,0,0,0-.3c0-.22,0-.51,0-.88,0-.81-.07-1.95-.12-3.41-.12-3-.3-7.25-.52-12.51-.49-10.59-1.15-25.17-1.89-41.29s-1.5-30.69-2-41.27c-.28-5.27-.5-9.54-.66-12.52-.09-1.45-.16-2.59-.2-3.4,0-.37-.05-.66-.07-.88A2.29,2.29,0,0,0,416.77,307.43Z" style="fill:#455a64"></path><path d="M422.28,423.38a5.25,5.25,0,0,0-.07,1.05c0,.76,0,1.72,0,2.85,0,2.41,0,5.73.14,9.4s.26,7,.42,9.4c.08,1.2.15,2.17.22,2.84a4.77,4.77,0,0,0,.14,1,4.08,4.08,0,0,0,0-1c0-.76,0-1.72-.08-2.85-.07-2.5-.17-5.77-.28-9.39s-.2-6.89-.28-9.4c-.05-1.13-.09-2.08-.12-2.84A4.71,4.71,0,0,0,422.28,423.38Z" style="fill:#455a64"></path><path d="M363.56,200.07s28.25-2.53,30.82-3.06,10.48-.2,10.48-.2l-9.24,25.82-38.19-4.42c-6.6-2.16-12-14.49-12-14.49l-12.53-23.81,13.31-1.17Z" style="fill:#ffbe9d"></path><path d="M434.52,197.9c.49.17,15.16,5.47,19.43,8.27,3,2,3.3,7,1.83,10.32l-7.3,16.42-4.08,20.31L457.61,285l1.33,5.24-63.84,4.51-2.81-6.62,3.33-30V220.33l9.24-23.52,15.81.2Z" style="fill:#CFD8DC"></path><g style="opacity:0.30000000000000004"><path d="M399.78,272a4.93,4.93,0,0,1,2.54-1.31,255.93,255.93,0,0,1,35.15-7.61c2.76-.39,5.64-.72,8.28.17s5.65,3.42,5.4,6.19l.38.93a28.64,28.64,0,0,1-16.19,3.86c-3.37-.15-7.06-.82-9.89,1-1.91,1.24-3,3.41-4.65,5a10.13,10.13,0,0,1-8.22,2.73,10.44,10.44,0,0,1-7.34-4.62c-.9-1.39-1.69-3.16-3.31-3.47-.68-.13-1.45,0-2-.35A1.76,1.76,0,0,1,399.78,272Z"></path></g><path d="M453.37,205.78a12.47,12.47,0,0,1,4.86,4.59c2.39,3.56,10.34,27,10.34,27l-20.28,8.41-5-10.77Z" style="fill:#CFD8DC"></path><path d="M448.42,223a2.8,2.8,0,0,0-.23.78c-.11.51-.26,1.25-.42,2.17-.32,1.83-.69,4.38-1,7.21s-.37,5.41-.38,7.28c0,.93,0,1.68,0,2.2a2.82,2.82,0,0,0,.08.81,24.93,24.93,0,0,0,.22-3c.1-1.86.26-4.42.52-7.24s.58-5.37.82-7.22A26,26,0,0,0,448.42,223Z" style="fill:#263238"></path><path d="M415.46,236.41a2.8,2.8,0,0,0,0,.83,13.52,13.52,0,0,0,.41,2.23,15.13,15.13,0,0,0,9.95,10.44,13.21,13.21,0,0,0,2.2.52,3.07,3.07,0,0,0,.83,0c0-.08-1.16-.22-2.93-.87a15.85,15.85,0,0,1-9.75-10.23C415.62,237.58,415.54,236.4,415.46,236.41Z" style="fill:#263238"></path><path d="M397.53,196.74c-3.58,0-17.83,1.79-17.83,1.79l-1.53,23.1,17.45,2.12,12-27S401.12,196.71,397.53,196.74Z" style="fill:#CFD8DC"></path><path d="M389.09,162.35a1,1,0,0,1,1-.79,1,1,0,0,1-.27-1,1,1,0,0,1,1.3-.51,1.79,1.79,0,0,1,1.3-2.74,1.84,1.84,0,0,1,1.76-2.84,1.26,1.26,0,0,1,1.4-2.07,1.51,1.51,0,0,1,2-1.85,1.64,1.64,0,0,1,2.08-1.86,1.17,1.17,0,0,1,.65-1.38,1.16,1.16,0,0,1,1.43.5,1.44,1.44,0,0,1,2.53-1.31,1.38,1.38,0,0,1,.73-1.57,1.36,1.36,0,0,1,1.66.49,2.07,2.07,0,0,1,1.27-2,2,2,0,0,1,2.27.63,1.47,1.47,0,0,1,1.49-1.37,4.21,4.21,0,0,1,2.11.7,1.48,1.48,0,0,1,1.63-.78,4.44,4.44,0,0,1,1.74.86,2.19,2.19,0,0,1,.53-1l1.17.5a1.94,1.94,0,0,1,1.58-3.5c-.7-.91.11-2.17.88-3l.68-.74a2.41,2.41,0,0,1,.69-.59,1.26,1.26,0,0,1,1.6.53,1.34,1.34,0,0,1,.88-1.46,1.33,1.33,0,0,1,1.56.67,2.1,2.1,0,0,1,3.46,0c0-.63.93-.78,1.48-.48s1,.84,1.65.86a6.3,6.3,0,0,0,1.12-.21,1.79,1.79,0,0,1,2,1.52,2.75,2.75,0,0,1,3.28,1.17,7.48,7.48,0,0,1,4.29,1.59c.62.39,1.31,1.22.78,1.74a2.14,2.14,0,0,1,2.42,2.18,1.81,1.81,0,0,1,2,2.43,1.21,1.21,0,0,1,1.29,1.75,1.38,1.38,0,0,1,1.54,1.82c.73-.21,1.3.82,1,1.51a3.05,3.05,0,0,1-1.77,1.33,2.18,2.18,0,0,1,1.59.3c.43.35.48,1.16,0,1.39a2.15,2.15,0,0,1,2.11,2.48,1.21,1.21,0,0,1,.94,2,1.72,1.72,0,0,1,.12,2.92,3.13,3.13,0,0,1,.66,4.47,1.27,1.27,0,0,1-.27,2.25,2.41,2.41,0,0,1-1.72,3.52,1.4,1.4,0,0,1,.77,2.65v.15c-.05.3-.24.57-.31.86v.07a2,2,0,0,1,.12.73l0,.16a4.86,4.86,0,0,1,.23.91c.12,1.42-1.44,2.47-2.46,3.61a6.27,6.27,0,0,0-1.26,2.15c-.29.92-.76,2.18-1.81,2a1.5,1.5,0,0,1-1.13,2.35c.55.15.47.92,0,1.27a8.92,8.92,0,0,1-1.57.7c-.57.3-1,.78-1.5,1.12a1.62,1.62,0,0,1-1.78.15l-.09.18h0c.31.23.2.76-.11,1a1.85,1.85,0,0,1-1.12.24h-1.3a11.14,11.14,0,0,1-5.36.68,2.41,2.41,0,0,1-2.82.39,4.09,4.09,0,0,1-3.6.34,3.17,3.17,0,0,1-2-2.59l-1.54-.26-5.65,1.86a5.48,5.48,0,0,1-3.61.33,2.58,2.58,0,0,1-3,.19,3.76,3.76,0,0,1-4,.23,2.48,2.48,0,0,1-2.32,1.1,10.59,10.59,0,0,0-1.24-.18c-.81,0-1.73.58-2.36.14-.37-.26-.4-.76-.71-1.09a3.4,3.4,0,0,0-1.55-.59c-.55-.15-1.54-2.8-1.34-3.28-1.31.07-2.25-2.18-2.83-4.1a2.43,2.43,0,0,1-.82-3.07,4.44,4.44,0,0,1-2.6-3.76c-.54,0-.94-.5-1.08-1a6.24,6.24,0,0,0-.4-1.57c-.26-.43-.73-.73-.89-1.21a2.08,2.08,0,0,1,0-1c.24-1.24.47-2.49.71-3.73a1.26,1.26,0,0,1-.68-2l-1.32-.84a1.18,1.18,0,0,1,.64-.8l-1.17-.66a1.35,1.35,0,0,0,.39-1.33l2.27-.6-2.39.62A1.93,1.93,0,0,1,389.09,162.35Z" style="fill:#263238"></path><path d="M435,155.8l-15.6-3.38c-5.76-.76-12.16,4.87-12.67,10.66-.57,6.44-1,14.32-.37,19.14,1.29,9.71,8.67,11.13,8.67,11.13l-.11,4a10.51,10.51,0,0,0,10,10.8h0a10.5,10.5,0,0,0,11-10l2-38.57A3.69,3.69,0,0,0,435,155.8Z" style="fill:#ffbe9d"></path><path d="M408.14,169.75A1.24,1.24,0,0,0,409.3,171a1.19,1.19,0,0,0,1.31-1.09,1.25,1.25,0,0,0-1.17-1.28A1.18,1.18,0,0,0,408.14,169.75Z" style="fill:#263238"></path><path d="M408,167.53c.11.21,1.19-.38,2.5-.12s2.12,1.16,2.3,1,0-.42-.35-.84a3.2,3.2,0,0,0-1.81-1,3.06,3.06,0,0,0-2,.32C408.11,167.15,407.91,167.44,408,167.53Z" style="fill:#263238"></path><path d="M421.2,170.58a1.24,1.24,0,0,0,1.16,1.28,1.19,1.19,0,0,0,1.31-1.08,1.26,1.26,0,0,0-1.17-1.29A1.19,1.19,0,0,0,421.2,170.58Z" style="fill:#263238"></path><path d="M420.89,168.5c.17.2,1.26-.58,2.78-.53s2.61.86,2.78.67-.09-.42-.56-.79a3.75,3.75,0,0,0-2.22-.77,3.71,3.71,0,0,0-2.22.65C421,168.08,420.81,168.42,420.89,168.5Z" style="fill:#263238"></path><path d="M416.39,177.58a9,9,0,0,0-2.16-.44c-.34,0-.66-.12-.71-.36a1.78,1.78,0,0,1,.25-1c.35-.82.7-1.67,1.08-2.57a44.32,44.32,0,0,0,2.43-6.73,44.09,44.09,0,0,0-3,6.52l-1,2.58a2,2,0,0,0-.21,1.34.87.87,0,0,0,.55.51,2.15,2.15,0,0,0,.57.09A8.36,8.36,0,0,0,416.39,177.58Z" style="fill:#263238"></path><path d="M415.07,193.35a24.61,24.61,0,0,0,13-3.13s-3.52,6.61-13.17,5.46Z" style="fill:#eb996e"></path><path d="M420.34,165.49c.17.35,1.48,0,3.06.08s2.87.34,3.05,0c.08-.17-.18-.49-.72-.79a5.32,5.32,0,0,0-4.65-.05C420.53,165,420.27,165.33,420.34,165.49Z" style="fill:#263238"></path><path d="M408.05,164c.22.33,1.26.17,2.47.33s2.2.52,2.48.25c.12-.14,0-.47-.4-.82a3.79,3.79,0,0,0-1.93-.78,3.59,3.59,0,0,0-2.05.32C408.15,163.58,408,163.87,408.05,164Z" style="fill:#263238"></path><path d="M436.58,172.91c.14-.06,5.78-1.7,5.59,4.05s-5.93,4.37-5.93,4.2S436.58,172.91,436.58,172.91Z" style="fill:#ffbe9d"></path><path d="M438.07,179s.09.08.26.16a1,1,0,0,0,.75,0,2.48,2.48,0,0,0,1.22-2.18,3.41,3.41,0,0,0-.23-1.45,1.16,1.16,0,0,0-.73-.79.52.52,0,0,0-.6.26c-.08.15-.05.27-.08.28s-.12-.1-.07-.34a.67.67,0,0,1,.24-.35.75.75,0,0,1,.56-.13,1.43,1.43,0,0,1,1,.93,3.38,3.38,0,0,1,.29,1.61,2.59,2.59,0,0,1-1.54,2.43,1,1,0,0,1-.91-.18C438.07,179.18,438.05,179.05,438.07,179Z" style="fill:#eb996e"></path><path d="M445.16,186.13c-2.81.92-1.84-12.59-4.23-14.33s-3.12,4.95-6.33,2.53c-2.09-1.57-.64-2.54-1.82-4.87-1.56-3.07-6.19-3.52-7.77-6.58-.92-1.79-.56-4-1.56-5.77s-2.88-2.41-4.72-2.83-3.77-.64-5.39-1.61-2.79-3-2-4.76a99.69,99.69,0,0,1,23.52,2.82c1.79.43,3.67,1,4.87,2.38s1.45,3.56,1.59,5.49l2.07,28.34" style="fill:#263238"></path><path d="M423.35,134.11s-.06-.06-.19-.16a1.13,1.13,0,0,0-.66-.23,1.3,1.3,0,0,0-1,.41,2,2,0,0,0-.52,1.32v.14l-.12-.06a2.09,2.09,0,0,0-2.11.3,2,2,0,0,0-.53,2.35l.29.66-.48-.53a1.32,1.32,0,0,0-1.49-.21,1.44,1.44,0,0,0-.79,1.62,2,2,0,0,0,.38.86,1.09,1.09,0,0,0,.68.49.26.26,0,0,0,.25-.18c0-.09,0-.17-.15-.19a.58.58,0,0,0-.56.39,2.15,2.15,0,0,0,.1,1.44,5.57,5.57,0,0,0,1.13,1.9c.35.39.59.56.58.58s-.07,0-.18-.11a5.57,5.57,0,0,1-.47-.41,5.5,5.5,0,0,1-1.21-1.9,2.21,2.21,0,0,1-.13-1.58.76.76,0,0,1,.78-.51.4.4,0,0,1,.25.14.35.35,0,0,1,.06.31.47.47,0,0,1-.45.34.86.86,0,0,1-.5-.2,1.8,1.8,0,0,1-.36-.37,2.27,2.27,0,0,1-.43-1,1.92,1.92,0,0,1,.12-1.08,1.51,1.51,0,0,1,.81-.8,1.55,1.55,0,0,1,1.75.27l-.2.13a2.27,2.27,0,0,1,.62-2.62,2.24,2.24,0,0,1,2.31-.29l-.13.08a2.21,2.21,0,0,1,.6-1.43,1.43,1.43,0,0,1,1.1-.4,1.17,1.17,0,0,1,.69.29,1,1,0,0,1,.12.14S423.36,134.11,423.35,134.11Z" style="fill:#263238"></path><path d="M403,145.91s0,0-.07-.12a.82.82,0,0,1,0-.41,1,1,0,0,1,.36-.56.92.92,0,0,1,.86-.19l-.09.08a1.11,1.11,0,0,1,.33-.93,1.17,1.17,0,0,1,1.09-.36l-.12.07a2.63,2.63,0,0,1,.43-1,1,1,0,0,1,.5-.34.79.79,0,0,1,.65.08l-.17.07a1.46,1.46,0,0,1,1.17-1.19,1.47,1.47,0,0,1,1.55.87l.39.95-.6-.83a1.2,1.2,0,0,1-.17-.42,1.27,1.27,0,0,1,.52-1.24,1.47,1.47,0,0,1,1.28-.16,1.8,1.8,0,0,1,1,.74,2.7,2.7,0,0,1,.4,1.06h-.21a1,1,0,0,1,.82-.84,1.51,1.51,0,0,1,1,.18,3.49,3.49,0,0,1,1.26,1.11,1.77,1.77,0,0,1,.35,1,1.58,1.58,0,0,1,0,.28c0,.07,0,.1,0,.09s0-.13,0-.37a1.8,1.8,0,0,0-.39-1,3.6,3.6,0,0,0-1.23-1,1.42,1.42,0,0,0-.93-.15.81.81,0,0,0-.65.67l-.06.95-.14-.94a2,2,0,0,0-1.24-1.61,1.27,1.27,0,0,0-1.09.13,1.06,1.06,0,0,0-.42,1,.83.83,0,0,0,.13.32l-.2.11a1.22,1.22,0,0,0-1.29-.73,1.23,1.23,0,0,0-1,1l0,.17-.14-.1a.71.71,0,0,0-.87.21,2.35,2.35,0,0,0-.4.9l0,.09-.09,0a1,1,0,0,0-.92.3,1,1,0,0,0-.31.79v.11l-.11,0a.8.8,0,0,0-.74.15,1,1,0,0,0-.36.49A.92.92,0,0,0,403,145.91Z" style="fill:#263238"></path><path d="M442.07,161.59a2.23,2.23,0,0,0,.19-.93,2.36,2.36,0,0,0-.31-1.08,2,2,0,0,0-1.16-.92l-.07,0,0-.07a1.1,1.1,0,0,0-.3-1.13,1.07,1.07,0,0,0-.61-.27,1.15,1.15,0,0,1-.77-.25,1.63,1.63,0,0,1-.34-.79,1.39,1.39,0,0,0-1.92-1l-.41.19.29-.35a1.28,1.28,0,0,0,0-1.58,1.26,1.26,0,0,0-1.66-.16l-.27.21.1-.33a2,2,0,0,0-.84-2.2,2,2,0,0,0-2.45.31l-.24.25,0-.34a2.94,2.94,0,0,0-.41-1.76,3.16,3.16,0,0,0-1.2-1.18,2.78,2.78,0,0,0-1.6-.31,3.12,3.12,0,0,0-2.49,1.74l-.12.28-.09-.29a1.74,1.74,0,0,0-1-1.06,2.2,2.2,0,0,0-1.47-.09,3.91,3.91,0,0,0-2.12,1.74l-.06.09-.08-.07a4,4,0,0,0-3.18-.91,3.91,3.91,0,0,0-2.27,1.16,4.19,4.19,0,0,0-.91,1.39c-.14.36-.18.56-.19.56a2.29,2.29,0,0,1,.14-.58,4.07,4.07,0,0,1,.88-1.44,4,4,0,0,1,2.33-1.24,4.25,4.25,0,0,1,3.32.91l-.14,0a4.16,4.16,0,0,1,2.23-1.84,2.45,2.45,0,0,1,1.6.09,2,2,0,0,1,1.17,1.2h-.21a3.3,3.3,0,0,1,2.67-1.88,2.92,2.92,0,0,1,1.73.34,3.35,3.35,0,0,1,1.3,1.26,3.24,3.24,0,0,1,.44,1.9l-.21-.09a2.18,2.18,0,0,1,3.68,2.11l-.17-.12a1.43,1.43,0,0,1,2,2.05l-.12-.16a1.6,1.6,0,0,1,1.78.39c.47.46.35,1.17.68,1.51a1.05,1.05,0,0,0,.67.21,1.17,1.17,0,0,1,.69.32,1.21,1.21,0,0,1,.32,1.29l0-.09a2.13,2.13,0,0,1,1.21,1,2.4,2.4,0,0,1,.29,1.13,1.87,1.87,0,0,1-.14.71A.85.85,0,0,1,442.07,161.59Z" style="fill:#455a64"></path><path d="M396.15,162.68a1.83,1.83,0,0,1-.2-.34,7.25,7.25,0,0,1-.46-1,3,3,0,0,1-.12-1.76,2.18,2.18,0,0,1,.56-1,1.56,1.56,0,0,1,1.15-.48l-.1.12a2,2,0,0,1,.64-1.77,2.07,2.07,0,0,1,2-.54l-.14.13a2.52,2.52,0,0,1,.51-2,2.48,2.48,0,0,1,2-.93,2.55,2.55,0,0,1,.88.16c.26.08.54.15.72,0s.22-.42.39-.67a2.18,2.18,0,0,1,.6-.61,2.33,2.33,0,0,1,2.92.24l-.18,0a6.12,6.12,0,0,1,.48-1.5,2,2,0,0,1,1-1,1.91,1.91,0,0,1,1.27,0,5.4,5.4,0,0,1,1,.37,5.31,5.31,0,0,1,1.23.84l.27.28c.06.07.09.11.08.11a6.85,6.85,0,0,0-1.63-1.12,5.6,5.6,0,0,0-1-.34,1.61,1.61,0,0,0-2.05,1,5.85,5.85,0,0,0-.44,1.45l0,.21-.14-.16a2.11,2.11,0,0,0-2.64-.18,1.85,1.85,0,0,0-.54.54,2.85,2.85,0,0,0-.17.35.79.79,0,0,1-.28.39.69.69,0,0,1-.48.1,2,2,0,0,1-.44-.1,2.35,2.35,0,0,0-2.59.69,2.34,2.34,0,0,0-.47,1.8l0,.18-.18-.05a1.8,1.8,0,0,0-1.77.48,1.77,1.77,0,0,0-.6,1.57l0,.12h-.12a1.4,1.4,0,0,0-1,.41,2.11,2.11,0,0,0-.53.89,2.88,2.88,0,0,0,.08,1.69C395.9,162.19,396.19,162.66,396.15,162.68Z" style="fill:#455a64"></path><path d="M451.47,152.58a3,3,0,0,0-.21-.91,2.63,2.63,0,0,0-.65-.91,2.32,2.32,0,0,0-1.36-.6h-.09l0-.08a1.83,1.83,0,0,0,0-1.4,1.89,1.89,0,0,0-1.16-1.12l-.08,0,0-.08a1.67,1.67,0,0,0-1.31-2.12,1.34,1.34,0,0,1-.82-.24c-.25-.27-.15-.61-.25-.83a1,1,0,0,0-1.32-.49l-.11.07,0-.13a2.25,2.25,0,0,0-2.94-1.41l-.1,0,0-.11a2,2,0,0,0-3-.74l-.12.1-.06-.14a2,2,0,0,0-3.27,0l-.12.21-.09-.22a1.38,1.38,0,0,0-2.65.56v.32l-.21-.24a2.3,2.3,0,0,0-3.66.57l-.07.18-.12-.15a2.33,2.33,0,0,0-4.1,1.22l0,.15-.14-.07a3.06,3.06,0,0,0-4.48,2.84v.1h-.1a4.65,4.65,0,0,0-3.32,1,4.48,4.48,0,0,0-1.47,2.2,4.74,4.74,0,0,0-.2,1.69c0,.4.08.6.06.6a2.85,2.85,0,0,1-.11-.59,4.5,4.5,0,0,1,.16-1.72,4.44,4.44,0,0,1,1.48-2.29,4.72,4.72,0,0,1,3.42-1.05l-.09.09a3.25,3.25,0,0,1,4.75-3l-.16.09a2.55,2.55,0,0,1,4.49-1.35l-.19,0a2.38,2.38,0,0,1,1.83-1.35,2.41,2.41,0,0,1,2.22.71l-.21.08a1.69,1.69,0,0,1,1-1.52,1.66,1.66,0,0,1,2.08.87h-.22a2.19,2.19,0,0,1,3.68,0l-.18,0a2.08,2.08,0,0,1,1.92-.4,2,2,0,0,1,1.42,1.23l-.14-.06a2.46,2.46,0,0,1,3.22,1.56l-.15-.06a1.15,1.15,0,0,1,1.6.6c.11.3,0,.61.2.76a1.22,1.22,0,0,0,.72.19,1.77,1.77,0,0,1,1.27.92,1.73,1.73,0,0,1,.16,1.43l-.05-.1a2,2,0,0,1,1.25,1.22,1.89,1.89,0,0,1,0,1.5l0-.08a2.42,2.42,0,0,1,1.41.66,2.49,2.49,0,0,1,.65,1,2,2,0,0,1,.15.69A1.44,1.44,0,0,1,451.47,152.58Z" style="fill:#455a64"></path><path d="M442.64,179s.07,0,.19.07a2.33,2.33,0,0,1,.49.29,3.6,3.6,0,0,1,1.26,1.64,4.59,4.59,0,0,1,0,3.07,3.58,3.58,0,0,1-1.09,1.49,3.93,3.93,0,0,1-1.77.87,3.82,3.82,0,0,1-2-.24,3.48,3.48,0,0,1-1.5-1.06,3.91,3.91,0,0,1-.82-3,3.66,3.66,0,0,1,.82-1.9,1.92,1.92,0,0,1,.44-.36l.18-.08a2.78,2.78,0,0,0-.55.5,3.64,3.64,0,0,0-.72,1.86,3.74,3.74,0,0,0,.81,2.79,3.27,3.27,0,0,0,1.42,1,3.71,3.71,0,0,0,1.84.23,3.85,3.85,0,0,0,1.67-.82,3.47,3.47,0,0,0,1-1.39,4.45,4.45,0,0,0,0-2.93,3.62,3.62,0,0,0-1.16-1.63C442.88,179.08,442.63,179,442.64,179Z" style="fill:#e0e0e0"></path><path d="M420,179.23a1.64,1.64,0,0,0-1.05-.49,2,2,0,0,0-1.63.47,1.46,1.46,0,0,0-.37,1.6l0-.15a1.61,1.61,0,0,0,1,1.28,1.74,1.74,0,0,0,1.61-.17,1.85,1.85,0,0,0,.8-1.41A1.5,1.5,0,0,0,420,179.23Z" style="fill:#eb996e"></path><path d="M438.15,171.85a2,2,0,0,1-1.45,1.75c.37,0,.46.6.2.86a1.26,1.26,0,0,1-1,.26,5.76,5.76,0,0,1-4.37-2.76,1.67,1.67,0,0,1-.72-2.52,1.48,1.48,0,0,1-.92-1.81,1.2,1.2,0,0,1-1.4-1.29,15.56,15.56,0,0,1-4.87-3.68,1.56,1.56,0,0,1,.14-2.06,1.17,1.17,0,0,1-.36-1.93,1.11,1.11,0,0,1-.79-1.39c-.67-.06-4-.34-4-1-1.86-.57-2.71-1.51-2.79-2s-1.05-.39-1.11-.89c-.09-.67.8-1,1.49-1a12.41,12.41,0,0,1,5.9,1.23,24.48,24.48,0,0,1,5.62,4.17l2.38,2.15c.6.54,1.26,1.27,1,2,.57-.29,1.26.21,1.54.8s.32,1.26.63,1.82a8.72,8.72,0,0,0,1.11,1.32,1.8,1.8,0,0,1,.52,1.57,2.22,2.22,0,0,1,2.32,1.48c.51-.34,1.24.19,1.33.8a2.76,2.76,0,0,1-.51,1.73" style="fill:#263238"></path><path d="M419,170.09a10.5,10.5,0,0,1,0-1.29,5.19,5.19,0,0,1,3.53-4.28,5.11,5.11,0,0,1,2.7-.12,4.5,4.5,0,0,1,1.37.52,4.71,4.71,0,0,1,1.22.93,5.11,5.11,0,0,1,.8,6,4.83,4.83,0,0,1-.92,1.22,4.94,4.94,0,0,1-1.19.86,5.19,5.19,0,0,1-2.64.59,5.11,5.11,0,0,1-2.27-.66,5.17,5.17,0,0,1-2.26-2.54,9.37,9.37,0,0,1-.37-1.22,1.38,1.38,0,0,0,0,.33,2.62,2.62,0,0,0,.09.39,2.68,2.68,0,0,0,.17.53,5.17,5.17,0,0,0,2.26,2.65,5.23,5.23,0,0,0,2.34.71,5.42,5.42,0,0,0,2.74-.59,5.15,5.15,0,0,0,1.25-.9,5.09,5.09,0,0,0,1-1.27,5.29,5.29,0,0,0-.84-6.24,4.88,4.88,0,0,0-1.27-1,5,5,0,0,0-1.44-.54,5.36,5.36,0,0,0-2.8.16,5.26,5.26,0,0,0-3.56,4.44c0,.21,0,.4,0,.56a2.17,2.17,0,0,0,0,.4A1.38,1.38,0,0,0,419,170.09Z" style="fill:#455a64"></path><path d="M404.16,169.36a10.31,10.31,0,0,1,0-1.28A5.23,5.23,0,0,1,405.7,165a5.18,5.18,0,0,1,2-1.23,5.11,5.11,0,0,1,2.7-.13,4.4,4.4,0,0,1,1.37.52,4.76,4.76,0,0,1,1.22.93,5.11,5.11,0,0,1,.8,6,4.83,4.83,0,0,1-.92,1.22,4.68,4.68,0,0,1-1.19.86,5.19,5.19,0,0,1-2.64.59,5.11,5.11,0,0,1-2.27-.65,5.23,5.23,0,0,1-2.26-2.55,9.37,9.37,0,0,1-.37-1.22,1.19,1.19,0,0,0,0,.33,1.87,1.87,0,0,0,.08.4,2.83,2.83,0,0,0,.17.52,5.18,5.18,0,0,0,2.26,2.66,5.27,5.27,0,0,0,5.08.11,5.15,5.15,0,0,0,1.25-.9,4.92,4.92,0,0,0,1-1.27,5.29,5.29,0,0,0-.84-6.24,5.1,5.1,0,0,0-1.27-1,5,5,0,0,0-1.44-.54,5.37,5.37,0,0,0-2.8.16,5.23,5.23,0,0,0-3.55,4.45,3.63,3.63,0,0,0,0,.55,2.37,2.37,0,0,0,0,.41A1.35,1.35,0,0,0,404.16,169.36Z" style="fill:#455a64"></path><path d="M404.6,165.37a5.44,5.44,0,0,1,4.62-2.4,8.08,8.08,0,0,1,5.47,2.75,7,7,0,0,1,4.67.36,6.38,6.38,0,0,1,5.14-2.47c2.95,0,5.13,2.94,5.13,2.94l2.33.34-.23,2.08-2.62-.32s-1.09-3.8-4.31-4c-4.33-.28-5.07,2.92-5.07,2.92l-1-.12.33-.61a6.74,6.74,0,0,0-4.13-.16l0,.74-.73,0A5.15,5.15,0,0,0,409.2,164a4.88,4.88,0,0,0-4.9,4.26l-1.72-.19.06-2.05Z" style="fill:#455a64"></path><path d="M424.41,173.93a2.13,2.13,0,0,0,1,0,4.46,4.46,0,0,0,3.36-2.92,2.16,2.16,0,0,0,.18-.93s-.1.35-.33.88a4.78,4.78,0,0,1-3.25,2.81C424.77,173.88,424.41,173.9,424.41,173.93Z" style="fill:#fff"></path><path d="M410.39,172.9a1.68,1.68,0,0,0,.76-.11,3.77,3.77,0,0,0,1.56-1,3.72,3.72,0,0,0,.94-1.58,1.64,1.64,0,0,0,.11-.75,5.33,5.33,0,0,0-.26.7,4.39,4.39,0,0,1-.95,1.48,4.2,4.2,0,0,1-1.46,1A7.36,7.36,0,0,0,410.39,172.9Z" style="fill:#fff"></path><path d="M423.19,260.48l28.3-9.12-1.84-6.4,16.57-6.62c2.35,6.61,4.09,10.9,4.73,15.88,0,.3.07.6.08.9a13.36,13.36,0,0,1-11.53,13.8l-34.13,2.28Z" style="fill:#ffbe9d"></path><path d="M420.64,177.82c-.21,0-.39,1.4-1.75,2.27s-2.87.53-2.9.73.3.32.95.42a3.59,3.59,0,0,0,2.42-.53,3.1,3.1,0,0,0,1.37-1.92C420.86,178.2,420.74,177.82,420.64,177.82Z" style="fill:#263238"></path><rect x="299.46" y="170.9" width="100.59" height="125.82" transform="translate(41.96 520.61) rotate(-76.74)" style="fill:#fafafa"></rect><path d="M422.53,199.28s-.21,0-.6-.12l-1.72-.39-6.66-1.53-25.1-5.82L300,170.74l.39-.24c-6.86,29.14-14.72,62.55-23,97.9h0l-.27-.43L399.53,296.9l-.37.22c7-29.46,12.82-53.89,16.89-71,2.05-8.54,3.65-15.24,4.75-19.83.55-2.28,1-4,1.27-5.23s.46-1.81.46-1.81-.12.59-.38,1.76-.67,2.93-1.19,5.19c-1.06,4.58-2.61,11.27-4.58,19.8-4,17.14-9.73,41.66-16.63,71.23l-.07.3-.29-.07L276.9,268.69l-.35-.09.08-.35h0c8.34-35.35,16.23-68.75,23.1-97.89l.08-.32.32.07,88.59,21.05,25,6,6.58,1.59,1.68.41Z" style="fill:#263238"></path><rect x="305.72" y="175.3" width="87.93" height="116.98" transform="matrix(0.23, -0.97, 0.97, 0.23, 41.91, 520.52)" style="fill:#455a64"></rect><polygon points="282.66 263.16 334.97 219.34 351.76 258.43 372.66 244.57 396.53 290 282.66 263.16" style="fill:#455a64"></polygon><path d="M371.6,221.09A9.21,9.21,0,1,1,364.75,210,9.21,9.21,0,0,1,371.6,221.09Z" style="fill:#455a64"></path><g style="opacity:0.30000000000000004"><polygon points="282.66 263.16 334.97 219.34 351.76 258.43 372.66 244.57 396.53 290 282.66 263.16"></polygon></g><g style="opacity:0.30000000000000004"><path d="M371.6,221.09A9.21,9.21,0,1,1,364.75,210,9.21,9.21,0,0,1,371.6,221.09Z"></path></g><path d="M351.27,183.11a5.7,5.7,0,0,0,.74-2.39,2.08,2.08,0,0,0-1.24-2,2.91,2.91,0,0,0-2.2.42,4.17,4.17,0,0,1-2.17.68,16.26,16.26,0,0,1-1.64-.5c-.56-.12-1.28.07-1.42.62a1,1,0,0,0,.44,1,2.92,2.92,0,0,0,1.05.41l6.73,1.63" style="fill:#ffbe9d"></path><path d="M332.21,176s1.6,5.13,2.36,5.25a3.08,3.08,0,0,0,1.76-.58s-.29,4.78,2.82,5.38c0,0,.57,1.46,1.63,1.56s1.25-1.23,1.25-1.23,1.72,2,2.35-.21a55.66,55.66,0,0,0,1.09-7.24s-.63-2.27-1.59-2a2.7,2.7,0,0,0-1.42.78,6.64,6.64,0,0,0-2-1.83,1.35,1.35,0,0,0-1.7.38s-1.44-2.22-2.33-1.57-.46,1.26-.46,1.26-1.87-1.43-2.67-1.06A2.41,2.41,0,0,0,332.21,176Z" style="fill:#ffbe9d"></path><path d="M342,186.34a22.19,22.19,0,0,0,.44-4.39,23,23,0,0,0,0-4.42,22.68,22.68,0,0,0-.43,4.39A22.55,22.55,0,0,0,342,186.34Z" style="fill:#eb996e"></path><path d="M336.33,180.63a6.65,6.65,0,0,0,.17-2.39,4.83,4.83,0,0,0-.44-2.37,10.29,10.29,0,0,0,0,2.38A6.68,6.68,0,0,0,336.33,180.63Z" style="fill:#eb996e"></path><path d="M339.19,186.05a28.2,28.2,0,0,0,0-5,27.57,27.57,0,0,0-.41-4.93,28.2,28.2,0,0,0,0,5A27.57,27.57,0,0,0,339.19,186.05Z" style="fill:#eb996e"></path><path d="M423.19,260.48,411,255.69l-17.49,3.9a3.45,3.45,0,0,0,3.06,2.14c2.46.26,8.91-1,8.91-1l-10.51,3.6s2,2.11,4.36,1.59,8.25-1.74,8.25-1.74l-7.06,3.69a3,3,0,0,0,3.25,1.43c2.47-.26,6.89-2.28,6.89-2.28s9.07,4.15,11.91,4.15,4-.08,4-.08Z" style="fill:#ffbe9d"></path><path d="M410,255.9c.08,0-12.78-.65-12.78-.65a1.41,1.41,0,0,0,.63,1.67c1,.79,5,1.27,5,1.27Z" style="fill:#ffbe9d"></path><path d="M410.24,255.65a12.29,12.29,0,0,1-2.41.75c-1.51.39-3.6.91-5.92,1.45s-4.42,1-6,1.3a11.84,11.84,0,0,1-2.5.39,12.58,12.58,0,0,1,2.42-.75c1.51-.4,3.6-.91,5.91-1.45s4.42-1,5.95-1.3A11.84,11.84,0,0,1,410.24,255.65Z" style="fill:#eb996e"></path><path d="M410.27,260.31c0,.15-1.23,0-2.68.19s-2.59.61-2.65.47a5.75,5.75,0,0,1,5.33-.66Z" style="fill:#eb996e"></path><path d="M411.77,264.35a9.12,9.12,0,0,0-2.07-.54,9.33,9.33,0,0,0-2.1.39c-.05-.05.11-.28.48-.51a3,3,0,0,1,1.64-.4,2.92,2.92,0,0,1,1.6.52C411.67,264.06,411.81,264.3,411.77,264.35Z" style="fill:#eb996e"></path></g><g id="freepik--Plant--inject-13"><path d="M62.54,401.8a11,11,0,0,1,6.09,6.14,19.36,19.36,0,0,1,1.27,8.74c-.31,5.73-3.21,11.67-6.44,16.42-5-3.91-6.56-11.15-7.11-14.87-.85-5.88,1.16-17,6.19-16.43" style="fill:#CFD8DC"></path><path d="M69.59,442.18a9.42,9.42,0,0,1,2.52-9.13,12.5,12.5,0,0,1,9-3.42,5.28,5.28,0,0,1,4.16,1.59,4,4,0,0,1,.3,4.07,8.14,8.14,0,0,1-2.85,3.15c-4,2.85-8.4,4.87-13.18,3.74" style="fill:#CFD8DC"></path><path d="M64.45,460a6.37,6.37,0,0,1,.1-1.18c.1-.83.24-1.91.4-3.2a32.65,32.65,0,0,1,2.68-10.29,20.22,20.22,0,0,1,6.8-8.13,14.36,14.36,0,0,1,2.88-1.48c.36-.14.65-.2.84-.26s.3-.08.3-.06a21.15,21.15,0,0,0-3.85,2,20.92,20.92,0,0,0-6.6,8.07,35.51,35.51,0,0,0-2.76,10.15c-.22,1.35-.39,2.43-.53,3.18A7.75,7.75,0,0,1,64.45,460Z" style="fill:#263238"></path><path d="M61.75,410.42a1.85,1.85,0,0,1,.09.51c0,.38.1.86.17,1.46.15,1.27.33,3.12.53,5.39.42,4.56.9,10.86,1.27,17.83s.57,13.29.65,17.86c0,2.29.05,4.14.05,5.42,0,.6,0,1.09,0,1.47a2.2,2.2,0,0,1,0,.51,2.85,2.85,0,0,1,0-.51q0-.57-.06-1.47c0-1.33-.11-3.17-.19-5.41-.15-4.57-.39-10.88-.76-17.85s-.81-13.26-1.15-17.82c-.16-2.24-.3-4.08-.4-5.4,0-.61-.07-1.09-.09-1.47A2.92,2.92,0,0,1,61.75,410.42Z" style="fill:#263238"></path><path d="M61.49,446.13a22.07,22.07,0,0,0-13-15.44c-1.64-.68-3.77-1.06-5,.21s-.83,3.4-.09,5a18.84,18.84,0,0,0,18,10.68" style="fill:#CFD8DC"></path><path d="M49.61,436a6.67,6.67,0,0,1,1,.39,9,9,0,0,1,1.18.55,14.89,14.89,0,0,1,1.52.83A20.28,20.28,0,0,1,55.11,439,23.68,23.68,0,0,1,57,440.49a25,25,0,0,1,3.64,4.15,24.69,24.69,0,0,1,2.52,4.92,22.85,22.85,0,0,1,.7,2.31c.2.73.3,1.43.41,2.06s.13,1.22.18,1.72a10.06,10.06,0,0,1,0,1.31,5.38,5.38,0,0,1-.06,1.11c-.09,0,0-1.59-.44-4.09a18.44,18.44,0,0,0-.46-2,21.8,21.8,0,0,0-.72-2.27,25,25,0,0,0-2.51-4.81,26,26,0,0,0-3.55-4.11,21.62,21.62,0,0,0-1.83-1.52c-.58-.47-1.17-.84-1.69-1.19C51.06,436.7,49.58,436.13,49.61,436Z" style="fill:#263238"></path></g></svg>